HIERARCHY
ROOT Hips
{
	OFFSET 0.00000 0.00000 0.00000
	CHANNELS 6 Xposition Yposition Zposition Zrotation Yrotation Xrotation 
	JOINT LHipJoint
	{
		OFFSET 0 0 0
		CHANNELS 3 Zrotation Yrotation Xrotation
		JOINT LeftHip
		{
			OFFSET 1.55020 -1.87941 0.79896
			CHANNELS 3 Zrotation Yrotation Xrotation
			JOINT LeftKnee
			{
				OFFSET 2.65269 -7.28822 0.00000
				CHANNELS 3 Zrotation Yrotation Xrotation
				JOINT LeftAnkle
				{
					OFFSET 2.61200 -7.17641 0.00000
					CHANNELS 3 Zrotation Yrotation Xrotation
					JOINT LeftToe
					{
						OFFSET 0.09338 -0.25656 1.92461
						CHANNELS 3 Zrotation Yrotation Xrotation
						End Site
						{
							OFFSET 0.00000 -0.00000 0.98480
						}
					}
				}
			}
		}
	}
	JOINT RHipJoint
	{
		OFFSET 0 0 0
		CHANNELS 3 Zrotation Yrotation Xrotation
		JOINT RightHip
		{
			OFFSET -1.56866 -1.87941 0.79895
			CHANNELS 3 Zrotation Yrotation Xrotation
			JOINT RightKnee
			{
				OFFSET -2.60199 -7.14892 0.00000
				CHANNELS 3 Zrotation Yrotation Xrotation
				JOINT RightAnkle
				{
					OFFSET -2.62841 -7.22151 0.00000
					CHANNELS 3 Zrotation Yrotation Xrotation
					JOINT RightToe
					{
						OFFSET -0.19532 -0.53663 1.93132
						CHANNELS 3 Zrotation Yrotation Xrotation
						End Site
						{
							OFFSET -0.00000 -0.00000 1.00896
						}
					}
				}
			}
		}
	}
	JOINT lowerback
	{
		OFFSET 0 0 0
		CHANNELS 3 Zrotation Yrotation Xrotation
		JOINT Chest
		{
			OFFSET 0.06381 2.07806 -0.22112
			CHANNELS 3 Zrotation Yrotation Xrotation
			JOINT Chest2
			{
				OFFSET -0.02881 2.08890 0.01825
				CHANNELS 3 Zrotation Yrotation Xrotation
				JOINT lowerneck
				{
					OFFSET 0 0 0
					CHANNELS 3 Zrotation Yrotation Xrotation
					JOINT Neck
					{
						OFFSET 0.02418 1.74325 -0.02023
						CHANNELS 3 Zrotation Yrotation Xrotation
						JOINT Head
						{
							OFFSET -0.01704 1.71677 0.04090
							CHANNELS 3 Zrotation Yrotation Xrotation
							End Site
							{
								OFFSET -0.00946 1.78238 0.01684
							}
						}
					}
				}
				JOINT LeftCollar
				{
					OFFSET 0 0 0
					CHANNELS 3 Zrotation Yrotation Xrotation
					JOINT LeftShoulder
					{
						OFFSET 3.39783 1.34157 0.16610
CHANNELS 3 Zrotation Xrotation Yrotation
						JOINT LeftElbow
						{
OFFSET 0 -5.152180 0.000000
CHANNELS 3 Zrotation Xrotation Yrotation
							JOINT LeftWrist
							{
OFFSET 0 -3.494590 0.000000
CHANNELS 3 Zrotation Xrotation Yrotation
								JOINT lhand
								{
									OFFSET 0 0 0
CHANNELS 3 Zrotation Xrotation Yrotation
									JOINT LFingers
									{
OFFSET 0 -0.512470 0.000000
CHANNELS 3 Zrotation Xrotation Yrotation
										End Site
										{
OFFSET 0 -0.413160 0.000000
										}
									}
								}
								JOINT LThumb
								{
OFFSET 0 0.000000 0.000000
CHANNELS 3 Zrotation Xrotation Yrotation
									End Site
									{
OFFSET 0 -0.419470 0.419470
									}
								}
							}
						}
					}
				}
				JOINT RightCollar
				{
					OFFSET 0 0 0
					CHANNELS 3 Zrotation Yrotation Xrotation
					JOINT RightShoulder
					{
						OFFSET -3.26224 1.05509 0.01188
CHANNELS 3 Zrotation Xrotation Yrotation
						JOINT RightElbow
						{
OFFSET 0 -5.443440 0.000000
CHANNELS 3 Zrotation Xrotation Yrotation
							JOINT RightWrist
							{
OFFSET 0 -3.584030 0.000000
CHANNELS 3 Zrotation Xrotation Yrotation
								JOINT rhand
								{
									OFFSET 0 0 0
CHANNELS 3 Zrotation Xrotation Yrotation
									JOINT RFingers
									{
OFFSET 0 -0.342490 0.000000
CHANNELS 3 Zrotation Xrotation Yrotation
										End Site
										{
OFFSET 0 -0.276120 0.000000
										}
									}
								}
								JOINT RThumb
								{
OFFSET 0 0.000000 0.000000
CHANNELS 3 Zrotation Xrotation Yrotation
									End Site
									{
OFFSET 0 -0.280340 0.280340
									}
								}
							}
						}
					}
				}
			}
		}
	}
}
MOTION
Frames: 11
Frame Time: 0.008333333333333333
-9.823227 16.283383 3.931427 -165.105676 -83.699815 160.897159 0.000000 0.000000 0.000000 -14.908812 -0.386072 -20.271557 10.296917 17.573508 60.476253 0.976055 -19.993214 -21.135355 0.644236 -5.134801 -14.293421 0.000000 0.000000 0.000000 18.291749 7.440344 -18.700654 -10.050770 -17.438252 59.657905 -3.123785 6.743508 -32.146642 -0.668430 5.228257 -14.560715 3.748968 -0.446066 13.278160 -0.910379 -0.160513 1.152383 -3.051876 -0.216657 -6.247162 1.703353 2.093597 2.001960 -0.983397 2.816554 -2.500256 -0.626382 1.403976 -1.060783 0.000000 0.000000 0.000000 32.583983 -10.622032 -38.297501 71.502427 -58.666838 44.052396 -15.884236 22.836190 -5.826169 0.000000 0.000000 0.000000 -7.125000 0.000000 0.000000 -33.662449 33.875673 -10.857015 0.000000 0.000000 0.000000 -27.752298 -16.283630 44.204666 -67.703021 -58.035534 -40.817644 33.646205 23.499037 21.717951 0.000000 0.000000 0.000000 7.125000 0.000000 0.000000 53.785789 44.417048 1.136751
-9.823080 16.283350 3.931480 -165.137028 -83.702046 160.927476 0.000000 0.000000 0.000000 -14.913637 -0.388215 -20.270272 10.296950 17.573525 60.476360 0.976566 -19.991441 -21.137866 0.644907 -5.137402 -14.300864 0.000000 0.000000 0.000000 18.286647 7.439232 -18.701362 -10.051311 -17.438556 59.659715 -3.123955 6.747525 -32.147126 -0.667889 5.226170 -14.554745 3.745105 -0.446797 13.278481 -0.911738 -0.162139 1.152550 -3.050827 -0.217372 -6.247285 1.705460 2.092592 2.001880 -0.984192 2.815262 -2.498967 -0.626946 1.403328 -1.060349 0.000000 0.000000 0.000000 32.583749 -10.620897 -38.294904 71.511082 -58.668113 44.059788 -15.889909 22.834571 -5.832706 0.000000 0.000000 0.000000 -7.125000 0.000000 0.000000 -33.668746 33.880818 -10.854644 0.000000 0.000000 0.000000 -27.752295 -16.283690 44.203397 -67.706664 -58.036202 -40.820733 33.657814 23.497712 21.711454 0.000000 0.000000 0.000000 7.125000 0.000000 0.000000 53.786968 44.410143 1.150454
-9.822933 16.283317 3.931534 -165.168381 -83.704276 160.957793 0.000000 0.000000 0.000000 -14.918462 -0.390359 -20.268986 10.296983 17.573542 60.476467 0.977077 -19.989668 -21.140377 0.645578 -5.140003 -14.308306 0.000000 0.000000 0.000000 18.281545 7.438120 -18.702070 -10.051852 -17.438860 59.661524 -3.124126 6.751542 -32.147610 -0.667348 5.224083 -14.548775 3.741242 -0.447528 13.278801 -0.913097 -0.163765 1.152717 -3.049779 -0.218086 -6.247409 1.707567 2.091587 2.001800 -0.984987 2.813970 -2.497678 -0.627511 1.402681 -1.059915 0.000000 0.000000 0.000000 32.583516 -10.619762 -38.292306 71.519736 -58.669389 44.067181 -15.895582 22.832952 -5.839244 0.000000 0.000000 0.000000 -7.125000 0.000000 0.000000 -33.675043 33.885963 -10.852273 0.000000 0.000000 0.000000 -27.752292 -16.283750 44.202128 -67.710307 -58.036869 -40.823821 33.669423 23.496386 21.704956 0.000000 0.000000 0.000000 7.125000 0.000000 0.000000 53.788147 44.403238 1.164157
-9.822786 16.283283 3.931587 -165.199733 -83.706506 160.988110 0.000000 0.000000 0.000000 -14.923286 -0.392503 -20.267701 10.297017 17.573558 60.476574 0.977588 -19.987895 -21.142888 0.646249 -5.142604 -14.315748 0.000000 0.000000 0.000000 18.276444 7.437009 -18.702777 -10.052393 -17.439163 59.663334 -3.124296 6.755558 -32.148094 -0.666807 5.221996 -14.542805 3.737379 -0.448259 13.279122 -0.914456 -0.165391 1.152884 -3.048731 -0.218801 -6.247532 1.709674 2.090582 2.001720 -0.985781 2.812677 -2.496389 -0.628075 1.402033 -1.059481 0.000000 0.000000 0.000000 32.583282 -10.618627 -38.289708 71.528390 -58.670664 44.074573 -15.901255 22.831332 -5.845781 0.000000 0.000000 0.000000 -7.125000 0.000000 0.000000 -33.681340 33.891108 -10.849903 0.000000 0.000000 0.000000 -27.752288 -16.283810 44.200859 -67.713950 -58.037537 -40.826910 33.681033 23.495061 21.698459 0.000000 0.000000 0.000000 7.125000 0.000000 0.000000 53.789325 44.396333 1.177860
-9.822639 16.283250 3.931640 -165.231085 -83.708737 161.018427 0.000000 0.000000 0.000000 -14.928111 -0.394646 -20.266415 10.297050 17.573575 60.476681 0.978099 -19.986122 -21.145399 0.646920 -5.145205 -14.323191 0.000000 0.000000 0.000000 18.271342 7.435897 -18.703485 -10.052934 -17.439467 59.665144 -3.124466 6.759575 -32.148579 -0.666266 5.219909 -14.536835 3.733516 -0.448990 13.279442 -0.915815 -0.167017 1.153051 -3.047682 -0.219515 -6.247656 1.711781 2.089577 2.001639 -0.986576 2.811385 -2.495100 -0.628639 1.401385 -1.059047 0.000000 0.000000 0.000000 32.583048 -10.617491 -38.287111 71.537045 -58.671940 44.081965 -15.906928 22.829713 -5.852319 0.000000 0.000000 0.000000 -7.125000 0.000000 0.000000 -33.687637 33.896254 -10.847532 0.000000 0.000000 0.000000 -27.752285 -16.283870 44.199590 -67.717592 -58.038205 -40.829998 33.692642 23.493735 21.691961 0.000000 0.000000 0.000000 7.125000 0.000000 0.000000 53.790504 44.389428 1.191563
-9.822492 16.283216 3.931694 -165.262437 -83.710967 161.048745 0.000000 0.000000 0.000000 -14.932936 -0.396790 -20.265130 10.297084 17.573592 60.476788 0.978610 -19.984349 -21.147910 0.647591 -5.147806 -14.330633 0.000000 0.000000 0.000000 18.266240 7.434785 -18.704193 -10.053475 -17.439771 59.666953 -3.124637 6.763592 -32.149063 -0.665725 5.217823 -14.530865 3.729653 -0.449722 13.279763 -0.917174 -0.168643 1.153218 -3.046634 -0.220230 -6.247779 1.713888 2.088572 2.001559 -0.987371 2.810093 -2.493812 -0.629204 1.400737 -1.058613 0.000000 0.000000 0.000000 32.582815 -10.616356 -38.284513 71.545699 -58.673215 44.089358 -15.912600 22.828093 -5.858857 0.000000 0.000000 0.000000 -7.125000 0.000000 0.000000 -33.693934 33.901399 -10.845162 0.000000 0.000000 0.000000 -27.752282 -16.283931 44.198322 -67.721235 -58.038873 -40.833087 33.704251 23.492410 21.685464 0.000000 0.000000 0.000000 7.125000 0.000000 0.000000 53.791682 44.382523 1.205266
-9.822345 16.283183 3.931747 -165.293790 -83.713197 161.079062 0.000000 0.000000 0.000000 -14.937761 -0.398933 -20.263844 10.297117 17.573609 60.476894 0.979121 -19.982576 -21.150421 0.648262 -5.150407 -14.338076 0.000000 0.000000 0.000000 18.261138 7.433673 -18.704901 -10.054016 -17.440075 59.668763 -3.124807 6.767609 -32.149547 -0.665184 5.215736 -14.524895 3.725790 -0.450453 13.280083 -0.918533 -0.170269 1.153385 -3.045585 -0.220944 -6.247903 1.715994 2.087567 2.001479 -0.988165 2.808801 -2.492523 -0.629768 1.400090 -1.058179 0.000000 0.000000 0.000000 32.582581 -10.615221 -38.281915 71.554354 -58.674490 44.096750 -15.918273 22.826474 -5.865394 0.000000 0.000000 0.000000 -7.125000 0.000000 0.000000 -33.700232 33.906544 -10.842791 0.000000 0.000000 0.000000 -27.752278 -16.283991 44.197053 -67.724878 -58.039541 -40.836175 33.715861 23.491084 21.678966 0.000000 0.000000 0.000000 7.125000 0.000000 0.000000 53.792861 44.375619 1.218968
-9.822198 16.283150 3.931801 -165.325142 -83.715428 161.109379 0.000000 0.000000 0.000000 -14.942585 -0.401077 -20.262559 10.297150 17.573625 60.477001 0.979631 -19.980803 -21.152931 0.648933 -5.153008 -14.345518 0.000000 0.000000 0.000000 18.256036 7.432561 -18.705609 -10.054557 -17.440379 59.670573 -3.124977 6.771625 -32.150031 -0.664643 5.213649 -14.518925 3.721927 -0.451184 13.280404 -0.919892 -0.171895 1.153552 -3.044537 -0.221659 -6.248027 1.718101 2.086562 2.001399 -0.988960 2.807509 -2.491234 -0.630332 1.399442 -1.057745 0.000000 0.000000 0.000000 32.582347 -10.614086 -38.279318 71.563008 -58.675766 44.104142 -15.923946 22.824855 -5.871932 0.000000 0.000000 0.000000 -7.125000 0.000000 0.000000 -33.706529 33.911689 -10.840420 0.000000 0.000000 0.000000 -27.752275 -16.284051 44.195784 -67.728521 -58.040208 -40.839264 33.727470 23.489758 21.672469 0.000000 0.000000 0.000000 7.125000 0.000000 0.000000 53.794040 44.368714 1.232671
-9.822051 16.283116 3.931854 -165.356494 -83.717658 161.139696 0.000000 0.000000 0.000000 -14.947410 -0.403220 -20.261273 10.297184 17.573642 60.477108 0.980142 -19.979030 -21.155442 0.649605 -5.155609 -14.352960 0.000000 0.000000 0.000000 18.250934 7.431449 -18.706317 -10.055098 -17.440683 59.672382 -3.125147 6.775642 -32.150515 -0.664102 5.211562 -14.512955 3.718064 -0.451915 13.280725 -0.921251 -0.173521 1.153719 -3.043488 -0.222373 -6.248150 1.720208 2.085557 2.001319 -0.989755 2.806217 -2.489945 -0.630896 1.398794 -1.057311 0.000000 0.000000 0.000000 32.582113 -10.612951 -38.276720 71.571663 -58.677041 44.111535 -15.929619 22.823235 -5.878469 0.000000 0.000000 0.000000 -7.125000 0.000000 0.000000 -33.712826 33.916835 -10.838050 0.000000 0.000000 0.000000 -27.752272 -16.284111 44.194515 -67.732163 -58.040876 -40.842352 33.739079 23.488433 21.665971 0.000000 0.000000 0.000000 7.125000 0.000000 0.000000 53.795218 44.361809 1.246374
-9.821904 16.283083 3.931908 -165.387846 -83.719889 161.170013 0.000000 0.000000 0.000000 -14.952235 -0.405364 -20.259988 10.297217 17.573659 60.477215 0.980653 -19.977257 -21.157953 0.650276 -5.158210 -14.360403 0.000000 0.000000 0.000000 18.245833 7.430337 -18.707025 -10.055639 -17.440986 59.674192 -3.125318 6.779659 -32.150999 -0.663561 5.209475 -14.506985 3.714201 -0.452647 13.281045 -0.922610 -0.175147 1.153886 -3.042440 -0.223088 -6.248274 1.722315 2.084552 2.001239 -0.990549 2.804925 -2.488656 -0.631461 1.398146 -1.056876 0.000000 0.000000 0.000000 32.581880 -10.611815 -38.274122 71.580317 -58.678317 44.118927 -15.935291 22.821616 -5.885007 0.000000 0.000000 0.000000 -7.125000 0.000000 0.000000 -33.719123 33.921980 -10.835679 0.000000 0.000000 0.000000 -27.752268 -16.284171 44.193247 -67.735806 -58.041544 -40.845441 33.750689 23.487107 21.659474 0.000000 0.000000 0.000000 7.125000 0.000000 0.000000 53.796397 44.354904 1.260077
-9.821757 16.283049 3.931961 -165.419199 -83.722119 161.200331 0.000000 0.000000 0.000000 -14.957059 -0.407508 -20.258703 10.297251 17.573675 60.477322 0.981164 -19.975484 -21.160464 0.650947 -5.160811 -14.367845 0.000000 0.000000 0.000000 18.240731 7.429226 -18.707732 -10.056179 -17.441290 59.676002 -3.125488 6.783675 -32.151483 -0.663021 5.207388 -14.501016 3.710337 -0.453378 13.281366 -0.923969 -0.176773 1.154053 -3.041392 -0.223803 -6.248397 1.724422 2.083547 2.001159 -0.991344 2.803632 -2.487367 -0.632025 1.397499 -1.056442 0.000000 0.000000 0.000000 32.581646 -10.610680 -38.271525 71.588971 -58.679592 44.126319 -15.940964 22.819997 -5.891544 0.000000 0.000000 0.000000 -7.125000 0.000000 0.000000 -33.725420 33.927125 -10.833309 0.000000 0.000000 0.000000 -27.752265 -16.284231 44.191978 -67.739449 -58.042212 -40.848529 33.762298 23.485782 21.652976 0.000000 0.000000 0.000000 7.125000 0.000000 0.000000 53.797576 44.347999 1.273780
